Coordinates
version=1
nRows=9
nColumns=24
inDegrees=yes

Units are S.I. units (second, meters, Newtons, ...)
Angles are in degrees.

endheader
time	pelvis_tilt	pelvis_list	pelvis_rotation	pelvis_tx	pelvis_ty	pelvis_tz	hip_flexion_r	hip_adduction_r	hip_rotation_r	knee_angle_r	ankle_angle_r	subtalar_angle_r	mtp_angle_r	hip_flexion_l	hip_adduction_l	hip_rotation_l	knee_angle_l	ankle_angle_l	subtalar_angle_l	mtp_angle_l	lumbar_extension	lumbar_bending	lumbar_rotation
      0.01000000	     68.08072029	     -2.67152306	      3.64607114	      0.65132584	      1.01322847	     -0.21580672	     -4.02915305	     -3.65192694	      2.72926127	    -40.35363021	    -19.51088929	     28.50576664	     67.07136252	     -7.65897110	    -14.81296876	      6.05624180	    -61.23911537	    -10.12524632	     30.10823968	     27.19632324	      0.00000000	      0.00000000	      0.00000000
      0.02000000	     68.03218690	     -2.50887226	      3.65438073	      0.65129767	      1.01324520	     -0.21593206	     -4.01004395	     -3.97235891	      2.37811403	    -41.33462179	    -19.37076722	     28.38316570	     67.08788843	     -7.64640399	    -14.56621263	      6.17633291	    -61.15054779	    -10.22346507	     30.19372103	     27.26019859	      0.00000000	      0.00000000	      0.00000000
      0.03000000	     67.98668873	     -2.40349176	      3.65629857	      0.65130804	      1.01325442	     -0.21603252	     -3.97777052	     -4.22079614	      2.09129586	    -42.32332979	    -19.14160716	     28.33452706	     67.15449234	     -7.61543188	    -14.40286945	      6.23160355	    -61.13217155	    -10.23580510	     30.19762748	     27.21640804	      0.00000000	      0.00000000	      0.00000000
      0.04000000	     67.94457803	     -2.34158324	      3.65288270	      0.65135867	      1.01326118	     -0.21611865	     -3.93729923	     -4.41370540	      1.86542341	    -43.31548696	    -18.86340430	     28.34512677	     67.27664490	     -7.57371790	    -14.30183728	      6.24057020	    -61.16130440	    -10.18749425	     30.14414405	     27.09171966	      0.00000000	      0.00000000	      0.00000000
      0.05000000	     67.90771120	     -2.30746611	      3.64554850	      0.65144492	      1.01325990	     -0.21619651	     -3.89459727	     -4.56837272	      1.69566639	    -44.30750838	    -18.58334832	     28.40061438	     67.46432289	     -7.53142664	    -14.24009509	      6.22388972	    -61.21249160	    -10.10724723	     30.06087454	     26.91838572	      0.00000000	      0.00000000	      0.00000000
      0.06000000	     67.88037436	     -2.28710664	      3.63573404	      0.65155502	      1.01324492	     -0.21626428	     -3.85554012	     -4.69860948	      1.57596616	    -45.29781359	    -18.34378904	     28.49159416	     67.73188834	     -7.49877366	    -14.19867892	      6.19940574	    -61.26365382	    -10.02039469	     29.97224289	     26.72750065	      0.00000000	      0.00000000	      0.00000000
      0.07000000	     67.86818303	     -2.27014526	      3.62541919	      0.65164946	      1.01321863	     -0.21630819	     -3.82575763	     -4.81427583	      1.49951576	    -46.28605235	    -18.17304912	     28.61495869	     68.09699517	     -7.48421218	    -14.16528798	      6.17965572	    -61.29967496	     -9.94509056	     29.89581071	     26.54483697	      0.00000000	      0.00000000	      0.00000000
      0.08000000	     67.87513671	     -2.25074216	      3.61800102	      0.65168429	      1.01318811	     -0.21631969	     -3.81150871	     -4.92348765	      1.45948374	    -47.27005754	    -18.07925098	     28.77252588	     68.57861511	     -7.49308539	    -14.13394718	      6.17124714	    -61.31383599	     -9.89109595	     29.84108212	     26.38880300	      0.00000000	      0.00000000	      0.00000000
      0.09000000	     67.90070801	     -2.22745664	      3.61810451	      0.65167711	      1.01316147	     -0.21631781	     -3.82097283	     -5.03516036	      1.44933252	    -48.24119585	    -18.04768629	     28.96798537	     69.19434340	     -7.52607793	    -14.10259281	      6.17543733	    -61.30727368	     -9.86048851	     29.81019259	     26.27006918	      0.00000000	      0.00000000	      0.00000000
